<svg width="46" height="44" viewBox="0 0 46 44" fill="none" xmlns="http://www.w3.org/2000/svg">
<g filter="url(#filter0_d)">
<g clip-path="url(#clip0)">
<path d="M31.7086 2.37524H4.79213C4.35513 2.37524 4.00044 2.72993 4.00044 3.16693V26.9167C4.00044 27.3537 4.35513 27.7084 4.79213 27.7084H31.7086C32.1456 27.7084 32.5002 27.3537 32.5002 26.9167V3.16693C32.5002 2.72993 32.1456 2.37524 31.7086 2.37524ZM30.9169 26.125H5.58381V3.95861H30.9169V26.125Z" fill="white"/>
<path d="M32.4163 26.5618L23.7081 9.1454C23.5766 8.88415 23.3138 8.71634 23.0209 8.7084C22.7201 8.69415 22.4572 8.85409 22.3116 9.1074L16.4929 19.2913L12.476 15.2744C12.3066 15.105 12.0659 15.0211 11.8316 15.0464C11.5941 15.0733 11.3803 15.2047 11.2505 15.4058L4.12558 26.489C3.88964 26.858 3.99577 27.3472 4.36307 27.5831C4.73201 27.8206 5.22126 27.7129 5.45712 27.3456L12.0501 17.0872L16.1065 21.1437C16.2807 21.3179 16.5293 21.4002 16.7715 21.3685C17.017 21.3353 17.2323 21.1896 17.3542 20.9758L22.9544 11.1767L30.9993 27.2711C31.1386 27.5481 31.4173 27.7081 31.7086 27.7081C31.8289 27.7081 31.9493 27.6811 32.0616 27.6241C32.4528 27.428 32.6127 26.953 32.4163 26.5618Z" fill="white"/>
<path d="M12.7087 5.54175C10.527 5.54175 8.75047 7.31823 8.75047 9.50002C8.75047 11.6818 10.527 13.4583 12.7087 13.4583C14.8905 13.4583 16.667 11.6818 16.667 9.50002C16.667 7.31823 14.8905 5.54175 12.7087 5.54175ZM12.7087 11.875C11.3993 11.875 10.3338 10.8095 10.3338 9.50002C10.3338 8.19059 11.3993 7.12504 12.7087 7.12504C14.0182 7.12504 15.0837 8.19059 15.0837 9.50002C15.0837 10.8095 14.0182 11.875 12.7087 11.875Z" fill="white"/>
<path d="M41.647 15.1749L32.1471 8.84168C31.7814 8.59943 31.2921 8.69918 31.0499 9.06173C30.8076 9.42592 30.9058 9.91672 31.2699 10.159L40.1491 16.079L29.8323 33.7647L16.2602 26.2249C15.8786 26.0111 15.3957 26.1504 15.1835 26.5321C14.9697 26.9152 15.1075 27.3966 15.4907 27.6087L29.7405 35.5254C29.8608 35.5934 29.9938 35.6251 30.1237 35.6251C30.3976 35.6251 30.662 35.4842 30.8093 35.2324L41.8925 16.2326C42.103 15.87 41.9954 15.4061 41.647 15.1749Z" fill="white"/>
</g>
</g>
<defs>
<filter id="filter0_d" x="0" y="0" width="46" height="46" filterUnits="userSpaceOnUse" color-interpolation-filters="sRGB">
<feFlood flood-opacity="0" result="BackgroundImageFix"/>
<feColorMatrix in="SourceAlpha" type="matrix" values="0 0 0 0 0 0 0 0 0 0 0 0 0 0 0 0 0 0 127 0"/>
<feOffset dy="4"/>
<feGaussianBlur stdDeviation="2"/>
<feColorMatrix type="matrix" values="0 0 0 0 0 0 0 0 0 0 0 0 0 0 0 0 0 0 0.25 0"/>
<feBlend mode="normal" in2="BackgroundImageFix" result="effect1_dropShadow"/>
<feBlend mode="normal" in="SourceGraphic" in2="effect1_dropShadow" result="shape"/>
</filter>
<clipPath id="clip0">
<rect x="4" width="38" height="38" fill="white"/>
</clipPath>
</defs>
</svg>
