<svg width="40" height="40" viewBox="0 0 40 40" fill="none" xmlns="http://www.w3.org/2000/svg">
<g clip-path="url(#clip0)">
<path d="M35.1469 8.0989L20.1132 0.08814C19.8901 -0.0308936 19.6228 -0.0292231 19.4015 0.0923166L4.78372 8.10308C4.54398 8.23464 4.39529 8.48607 4.39529 8.75964V19.2237C4.40407 27.8255 9.50038 35.6074 17.3817 39.0535L19.4107 39.9377C19.6003 40.0204 19.8162 40.0208 20.0062 39.9385L22.2925 38.9512C30.32 35.5798 35.5424 27.7228 35.5433 19.0162V8.75964C35.5433 8.48315 35.3908 8.22879 35.1469 8.0989ZM34.0464 19.0162C34.0447 27.1226 29.181 34.4371 21.7066 37.5741L21.7015 37.5767L19.7105 38.4362L17.9806 37.6815C10.6444 34.4738 5.90013 27.2307 5.89178 19.2237V9.20278L19.7661 1.59882L34.0464 9.20821V19.0162Z" fill="white"/>
<path d="M19.454 26.216C22.082 26.216 23.954 24.542 23.954 22.076C23.954 19.646 22.046 18.188 19.598 18.188C18.554 18.188 17.852 18.422 17.114 18.746L17.384 14.714H23.396V13.4H16.142L15.782 19.538L16.736 20.168C17.474 19.772 18.32 19.448 19.382 19.448C21.218 19.448 22.514 20.528 22.514 22.094C22.514 23.732 21.272 24.92 19.472 24.92C18.194 24.92 16.988 24.254 15.89 23.192L14.954 24.218C16.088 25.352 17.654 26.216 19.454 26.216Z" fill="white"/>
</g>
<defs>
<clipPath id="clip0">
<rect width="40" height="40" fill="white"/>
</clipPath>
</defs>
</svg>
